<?xml version="1.0" ?><svg width="64px" height="64px" viewBox="0 0 64 64" xmlns="http://www.w3.org/2000/svg"><g data-name="05_Note Book" id="_05_Note_Book"><path d="M57,52H3a1,1,0,0,1-1-1V18a1,1,0,0,1,1-1H57a1,1,0,0,1,1,1V51A1,1,0,0,1,57,52Z" style="fill:#0455bf"/><path d="M53,12H38.24A19.148,19.148,0,0,0,31,13.43c-.35.13-.7.29-1.04.45q-.465-.225-.96-.42A19.111,19.111,0,0,0,21.69,12H7a1,1,0,0,0-1,1V47a1,1,0,0,0,1,1H21.69A16.949,16.949,0,0,1,29,49.65q.255.1.51.24a1.03,1.03,0,0,0,.45.11.988.988,0,0,0,.45-.1l.21-.11c.12-.06.25-.12.38-.17A17.119,17.119,0,0,1,38.24,48H53a1,1,0,0,0,1-1V13A1,1,0,0,0,53,12Z" style="fill:#fdfeff"/><path d="M31.515,51.579A15.179,15.179,0,0,1,38.237,50H53a3,3,0,0,0,3-3V17H55V47a2,2,0,0,1-2,2H38.237a16.183,16.183,0,0,0-7.168,1.684l-.216.107a2,2,0,0,1-1.8-.012A16.173,16.173,0,0,0,21.692,49H7a2,2,0,0,1-2-2V17H4V47a3,3,0,0,0,3,3H21.692a15.163,15.163,0,0,1,6.9,1.669A3.02,3.02,0,0,0,29.963,52a2.984,2.984,0,0,0,1.334-.313Z" style="fill:#c3d6dd"/><path d="M57,17h-.777L56,17.223V26.07l2-2V18A1,1,0,0,0,57,17Z" style="fill:#004787"/><path d="M54,47a1,1,0,0,1-1,1H38.237a17.189,17.189,0,0,0-7.613,1.788l-.216.107a.993.993,0,0,1-.445.1,1.006,1.006,0,0,1-.457-.11A17.164,17.164,0,0,0,21.692,48H7a1,1,0,0,1-1-1V15H5V47a2,2,0,0,0,2,2H21.692a16.173,16.173,0,0,1,7.357,1.779,2,2,0,0,0,1.8.012l.216-.107A16.183,16.183,0,0,1,38.237,49H53a2,2,0,0,0,2-2V15H54Z" style="fill:#dfeaef"/><path d="M16,24a1,1,0,0,1-.555-.168L13,22.2l-2.445,1.63A1,1,0,0,1,9,23V12h8V23a1,1,0,0,1-1,1Z" style="fill:#d6e8f2"/><path d="M17,23a1,1,0,0,1-.555-.168L14,21.2l-2.445,1.63A1,1,0,0,1,10,22V12h8V22a1,1,0,0,1-1,1Z" style="fill:#f74e0c"/><path d="M12,22V12H10V22a1,1,0,0,0,1.555.832l.563-.375A.986.986,0,0,1,12,22Z" style="fill:#e03a07"/><rect height="2" style="fill:#d6e8f2" width="15" x="34" y="37"/><rect height="2" style="fill:#d6e8f2" width="13" x="36" y="41"/><rect height="2" style="fill:#d6e8f2" width="15" x="11" y="37"/><rect height="2" style="fill:#d6e8f2" width="15" x="11" y="33"/><rect height="2" style="fill:#d6e8f2" width="15" x="11" y="29"/><rect height="2" style="fill:#d6e8f2" width="7" x="11" y="41"/><rect height="2" style="fill:#d6e8f2" width="2" x="24" y="41"/><rect height="2" style="fill:#d6e8f2" width="2" x="20" y="41"/><path d="M31,13.43V49.62c-.13.05-.26.11-.38.17l-.21.11a.988.988,0,0,1-.45.1,1.03,1.03,0,0,1-.45-.11q-.255-.135-.51-.24V13.46q.495.195.96.42C30.3,13.72,30.65,13.56,31,13.43Z" style="fill:#f0f4f7"/><polygon points="43.366 29.857 42.629 33.543 42.146 35.5 44.103 35.018 47.79 34.28 55 27.07 55 18.223 43.366 29.857" style="fill:#e2e8ed"/><polygon points="54 28.07 55 27.07 55 18.223 54 19.223 54 28.07" style="fill:#abcad8"/><polygon points="55 27.07 56 26.07 56 17.223 55 18.223 55 27.07" style="fill:#8db7c6"/><path d="M60.061,20.009l-4.424-4.424,1.475-1.474a2.084,2.084,0,0,1,2.949,0l1.475,1.474a2.087,2.087,0,0,1,0,2.95Z" style="fill:#f74e0c"/><path d="M60.8,14.848l-.737-.737a2.084,2.084,0,0,0-2.949,0l-1.475,1.474.738.738,1.474-1.475A2.086,2.086,0,0,1,60.8,14.848Z" style="fill:#cc2600"/><rect height="6.256" style="fill:#f74e0c" transform="translate(-3.014 43.064) rotate(-45)" width="16.683" x="42.135" y="22.042"/><rect height="2.085" style="fill:#febc00" transform="translate(-3.014 43.064) rotate(-45)" width="16.683" x="42.135" y="24.128"/><rect height="2.085" style="fill:#f74e0c" transform="translate(-2.403 41.59) rotate(-45)" width="16.683" x="40.66" y="22.653"/><rect height="6.256" style="fill:#dfeaef" transform="translate(3.99 45.966) rotate(-45)" width="3.128" x="55.917" y="15.038"/><path d="M57.112,18.535a2.085,2.085,0,0,1,0-2.95h0l-.737-.737L54.163,17.06l4.423,4.424.738-.738Z" style="fill:#c3d6dd"/><polygon points="43.103 34.018 41.629 32.543 42.366 28.857 46.79 33.28 43.103 34.018" style="fill:#f7d694"/><polygon points="41.629 32.543 41.146 34.5 43.103 34.018 41.629 32.543" style="fill:#f74e0c"/></g></svg>