<?xml version="1.0" encoding="UTF-8" standalone="no"?>
<svg
   xmlns:dc="http://purl.org/dc/elements/1.1/"
   xmlns:cc="http://creativecommons.org/ns#"
   xmlns:rdf="http://www.w3.org/1999/02/22-rdf-syntax-ns#"
   xmlns:svg="http://www.w3.org/2000/svg"
   xmlns="http://www.w3.org/2000/svg"
   xmlns:sodipodi="http://sodipodi.sourceforge.net/DTD/sodipodi-0.dtd"
   xmlns:inkscape="http://www.inkscape.org/namespaces/inkscape"
   sodipodi:docname="youngdongbot.svg"
   inkscape:version="1.0 (4035a4fb49, 2020-05-01)"
   id="svg1889"
   version="1.1"
   viewBox="0 0 52.916665 66.145835"
   height="250"
   width="200">
  <defs
     id="defs1883" />
  <sodipodi:namedview
     units="px"
     inkscape:window-maximized="1"
     inkscape:window-y="-8"
     inkscape:window-x="-8"
     inkscape:window-height="1017"
     inkscape:window-width="1920"
     showgrid="false"
     inkscape:document-rotation="0"
     inkscape:current-layer="layer1"
     inkscape:document-units="mm"
     inkscape:cy="543.85043"
     inkscape:cx="-133.59093"
     inkscape:zoom="0.7"
     inkscape:pageshadow="2"
     inkscape:pageopacity="0.0"
     borderopacity="1.0"
     bordercolor="#666666"
     pagecolor="#ffffff"
     id="base" />
  <metadata
     id="metadata1886">
    <rdf:RDF>
      <cc:Work
         rdf:about="">
        <dc:format>image/svg+xml</dc:format>
        <dc:type
           rdf:resource="http://purl.org/dc/dcmitype/StillImage" />
        <dc:title></dc:title>
      </cc:Work>
    </rdf:RDF>
  </metadata>
  <g
     id="layer1"
     inkscape:groupmode="layer"
     inkscape:label="레이어 1">
    <path
       style="fill:#57574b;stroke:none;stroke-width:0.264583"
       d="m 9.0650308,28.980833 c -1.467934,0.111654 -2.404401,1.077381 -2.194242,2.645827 0.227065,1.694662 2.098172,2.34183 2.398395,3.969811 0.537025,2.911999 0.36113,6.285701 0.565917,9.259361 0.09993,1.45097 -0.07895,3.050109 1.1414132,4.118499 1.282885,1.123421 4.900136,0.883441 6.555184,0.840049 0.860161,-0.02281 2.046817,-0.475718 2.638161,0.417251 0.472281,0.71279 0.759883,5.423429 0.492389,6.26586 -0.33946,1.067861 -1.052512,1.701271 -0.984779,2.910419 0.09393,1.683282 1.423194,3.37317 3.145896,2.645831 V 61.78916 c -0.549804,-0.607748 -1.312069,-1.265769 -1.444889,-2.11958 -0.159015,-1.02208 0.799041,-1.494358 0.949589,-2.402149 0.297921,-1.797579 -1.517121,-6.031709 0.08467,-7.452781 1.577446,-1.399648 5.564188,-0.73846 7.554385,-0.990068 l 0.529165,6.085409 h 0.529167 c 1.140352,-2.03544 0.760152,-3.917421 0.264582,-6.085409 2.41962,-0.0021 4.7543,-0.57944 7.14375,-0.869162 0.80486,-0.0976 2.03835,-0.0789 2.53206,-0.83317 1.9267,-2.94323 0.1315,-7.40437 1.36843,-10.45713 0.73051,-1.802868 2.97577,-1.975908 3.21469,-4.24471 0.41619,-3.950223 -3.25861,-6.358196 -2.55694,-10.049133 0.37412,-1.967177 3.72613,-2.386807 4.61513,-4.502944 0.98981,-2.356855 0.54451,-5.155195 -1.78885,-6.590903 -0.91678,-0.564039 -2.24525,-0.436086 -2.88978,-1.4070279 -0.99139,-1.494023 -0.14472,-3.539278 -1.64385,-4.8519293 -0.99351,-0.870003 -2.42835,-0.617987 -3.64464,-0.647779 -2.6842,-0.06575 -5.24827,-0.124275 -7.937499,-0.0065 -4.76885,0.208836 -9.580563,-0.294322 -14.2875,0.772531 -1.357763,0.307737 -3.277976,0.37002 -4.383194,1.3131273 -1.3460942,1.148609 -0.53766,3.6136529 -1.6330082,4.9644029 -1.408298,1.73662 -3.669983,1.802951 -4.398302,4.337447 -1.068281,3.717661 2.762118,4.094427 4.04675,6.410325 0.801052,1.444096 0.01775,5.125509 0.01775,6.818842 M 25.469199,5.9621188 c 0.424656,2.1118253 2.062428,3.0932703 3.704167,4.2333332 -3.314965,0.979832 -7.163859,0.357982 -10.583334,0.956469 -1.083919,0.189706 -2.796276,0.116232 -3.589629,0.958506 -1.029361,1.092782 -0.907759,3.049164 -0.908288,4.435025 -0.0014,3.60389 -0.385048,7.876646 0.508952,11.377084 0.228839,0.895879 0.303081,2.397128 0.921544,3.094826 1.333209,1.503629 4.703075,1.13851 6.507004,1.13851 -1.756569,2.223018 -5.051928,2.351608 -7.672917,2.070618 -0.974222,-0.10424 -2.574025,-0.294478 -3.01535,-1.314968 -0.947553,-2.191551 -0.339831,-5.349613 -0.18333,-7.63482 0.347715,-5.077618 -1.1766292,-12.146941 0.97319,-16.8980109 0.780468,-1.724819 5.587445,-1.822979 7.252574,-1.89783 0.609071,-0.02736 1.681692,-0.3893873 2.210064,0.02799 1.590676,1.256877 -3.621616,1.978475 -1.372129,3.42773 2.436813,1.5697199 3.655219,-2.040916 3.659982,-3.709882 l 1.5875,-0.2645833 M 31.290034,31.6267 c 1.46473,-0.19712 5.05169,0.02011 5.97376,-1.118926 1.12951,-1.395939 0.31909,-5.639591 0.15664,-7.347741 -0.30692,-3.223419 0.56567,-10.348093 -2.46063,-12.476851 -1.51474,-1.0655829 -3.30544,-0.620897 -4.992688,-0.487733 l 0.04725,-0.2527711 c 2.850883,-2.4214023 -0.631977,-2.0537598 -1.89933,-3.7159788 3.071283,-0.1318683 6.176171,-0.5174983 9.260421,-0.1900763 0.74374,0.07895 2.14391,-0.18214 2.71409,0.3601243 1.05357,1.0024 0.72549,4.7929799 0.72549,6.1799519 2.6e-4,5.34842 0.12515,10.531211 -0.24077,15.875 -0.0934,1.362865 0.53234,4.283602 -0.33655,5.396702 -0.48869,0.625739 -1.65497,0.431271 -2.3331,0.348461 -1.97326,-0.241572 -5.54805,-0.7239 -6.61458,-2.570162 m 0,-19.503629 c 4.91781,-0.57994 3.69596,7.964091 4.01373,11.301545 0.12673,1.331648 0.79587,3.970867 -0.0923,5.135827 -0.54531,0.715433 -2.04947,0.719402 -2.86306,0.836351 -2.149209,0.3085 -3.960698,-1.361266 -5.943486,-1.242997 -0.706701,0.04207 -1.3098,1.587747 -2.004331,1.729827 -1.659467,0.33946 -5.519209,0.4826 -7.049321,-0.26855 -0.970148,-0.476516 -0.865955,-2.630754 -0.876829,-3.544625 -0.03545,-2.978414 -0.445003,-6.030383 -0.241935,-8.995833 0.05617,-0.820367 -6.61e-4,-2.564818 0.665136,-3.138038 0.92665,-0.797824 2.918513,-0.733504 4.073684,-0.871749 3.432175,-0.410713 6.881283,-0.53639 10.318752,-0.941758 m 12.17083,0.189045 v 5.027083 h -0.26458 l -0.26458,-5.027083 h 0.52916 m 1.5875,0.264583 c 1.55258,1.287383 2.51619,4.694449 0,5.55625 v -5.55625 m -35.9833332,0.79375 v 6.879167 c -1.633749,-0.922602 -1.662509,-5.962412 0,-6.879167 m 13.6022302,3.99161 c -1.064948,0.632857 -0.906727,3.858049 0.553509,3.105574 1.022085,-0.526786 0.868627,-3.950494 -0.553509,-3.105574 m 4.809597,0.264584 c -0.910961,0.628279 -0.137849,3.013233 1.052776,2.322142 1.064155,-0.617538 0.02699,-3.066865 -1.052776,-2.322142 m -2.501372,4.786206 c -1.271436,0.515832 -3.415368,1.59935 -3.125243,2.708074 0.281018,1.073917 1.990977,2.753047 3.344692,2.674022 2.048252,-0.550786 3.855513,-1.368366 3.831436,-2.300229 0.01189,-1.189838 -0.814482,-2.076782 -1.262294,-2.473869 -0.455603,-0.403996 -1.83229,-1.583814 -2.316121,-1.387573 m 18.012908,6.553842 c 0.36248,1.868748 1.28985,4.462984 -0.79375,5.556245 v -5.556245 l 0.42626,-0.835217 M 9.0650708,30.039204 v 2.116657 l -0.79375,-2.116657 h 0.79375 M 40.021324,36.65377 c 0,2.184141 0.6387,7.034742 -0.80089,8.836292 -1.03109,1.290108 -6.09389,1.217348 -7.66578,1.21788 -6.615111,0.003 -13.193447,0.79375 -19.843749,0.79375 L 11.446281,35.860001 c 3.237892,0.668071 6.418554,1.069171 9.524736,-0.432329 2.194719,-1.060982 2.821082,-3.047251 5.544703,-2.943802 1.52162,0.0579 3.106587,1.083361 4.417598,1.722062 3.029216,1.476108 5.673516,2.419498 9.087966,2.447809 m -20.834617,0.764651 c -0.738717,0.22198 -3.105694,2.09645 -2.662094,2.917179 0.351923,0.65114 0.984881,0.88124 1.556116,1.250879 0.564621,0.365651 1.563443,1.163031 2.348197,0.954011 0.678656,-0.180711 2.612736,-1.08857 2.527311,-2.495209 -0.0619,-1.019212 -0.894596,-0.846431 -1.51811,-0.864931 -0.808867,-0.024 -0.907785,-1.938261 -2.25142,-1.761929 m 13.196887,1.888588 c -3.804971,2.183611 0.30904,8.168222 4.16931,5.58642 3.39566,-2.270919 -1.12051,-7.33611 -4.16931,-5.58642 m -2.416438,22.746761 c 2.214568,-0.345541 2.691078,-2.871521 2.025648,-4.758529 -0.21431,-0.607221 -1.046161,-1.842561 -1.854728,-1.29064 -0.428359,0.29237 -0.202934,0.901438 -0.08414,1.288 0.544776,1.77456 0.06826,2.98238 -0.08678,4.761169 z"
       id="path1761"
       sodipodi:nodetypes="cssscccccccsccccccscsccccccssscccscccsccccccccsccccccccccccscccccccccccscsssccccccccccccccccccccsccscccccccccccccccccccsccssccccccscc" />
    <path
       style="fill:#fdac3c;fill-opacity:1;stroke-width:0.235818"
       d="m 44.959984,15.429742 c 0.007,-2.995729 0.0358,-3.206613 0.37946,-2.77087 1.36243,1.727505 1.65517,4.097128 0.65326,5.287824 -0.33578,0.399054 -0.70719,0.725549 -0.82536,0.725549 -0.11922,0 -0.21152,-1.443465 -0.20736,-3.242503 z"
       id="path1794" />
    <path
       style="fill:#f3ee65;fill-opacity:1;stroke-width:0.0849614"
       d="m 43.195454,17.046707 c -0.004,-0.219387 -0.0861,-1.374419 -0.18268,-2.566738 l -0.17557,-2.167853 h 0.33878 0.33877 v 2.566737 c 0,2.235296 -0.0202,2.566738 -0.15609,2.566738 -0.11981,0 -0.15773,-0.09268 -0.16321,-0.398884 z"
       id="path1806" />
    <path
       style="fill:#f3ee65;fill-opacity:1;stroke-width:0.0712158"
       d="m 8.8869878,20.211532 c -0.246062,-0.16237 -0.587582,-0.720156 -0.78423,-1.280835 -0.642695,-1.832464 -0.310273,-4.441037 0.682301,-5.354143 l 0.296676,-0.272922 v 3.504766 c 0,1.927625 -0.0091,3.50477 -0.02037,3.50477 -0.01119,0 -0.08967,-0.04574 -0.174386,-0.101641 z"
       id="path1808" />
    <path
       style="fill:#84b8a7;fill-opacity:1;stroke-width:0.0668173"
       d="m 38.359564,34.223463 c -1.59547,-0.213309 -2.71363,-0.277487 -3.3979,-0.443865 -1.54174,-0.374869 -2.81242,-1.087675 -3.45049,-1.769827 -0.400955,-0.428651 -0.313801,-0.448172 0.96441,-0.509875 3.45663,-0.166865 4.45148,-0.355574 4.92001,-1.28016 0.0878,-0.173246 0.28148,-0.613907 0.34381,-0.921498 0.16045,-0.791869 0.0502,-2.958529 -0.18511,-4.740095 -0.14509,-1.098508 -0.18205,-1.709143 -0.23556,-4.018828 -0.0917,-3.956735 -0.2039,-5.428081 -0.56807,-6.872697 -0.56151,-2.227385 -1.63335,-3.200046 -3.31839,-3.500266 -0.67669,-0.120563 -1.1234,-0.2091159 -2.288985,-0.08843 -1.127987,0.116797 -2.845324,0.371765 -2.845324,0.371765 0.04451,-0.154063 0.470067,-0.4741853 0.686251,-0.411206 0,0 0.108779,-0.0061 0.14028,-0.0058 0.19896,0.0019 0.396404,-0.0086 0.507393,-0.01464 0.438938,-0.024068 0.428927,-0.1621439 0.460706,-0.1912339 0.141369,-0.129413 0.161779,-0.201046 0.361273,-0.397814 0.647413,-0.638559 0.810265,-0.9290899 0.524359,-1.269649 C 30.733515,7.8678326 30.164236,8.4332796 29.922487,8.4021196 29.61887,8.3629851 28.868121,8.2906582 28.623648,8.0361639 28.159389,7.5528728 28.073204,7.6682325 27.564041,6.7761314 27.392189,6.4750305 27.32159,6.2613788 28.11503,6.2266901 l 0.406685,-0.01778 c 0.852036,-0.03725 4.298749,-0.298439 5.824749,-0.302281 2.09473,-0.0053 4.75355,0.103582 5.25652,0.199361 0.69268,0.131905 0.99929,0.752951 1.19858,2.067417 0.0886,0.584663 0.0977,1.732706 0.0695,8.7577719 -0.0222,5.509119 -0.10691,8.46574 -0.16495,9.330809 -0.0468,0.69824 -0.0274,2.055585 -0.0145,2.900825 0.0499,3.275134 0.0195,3.623262 -0.1165,4.116577 -0.25186,0.913842 -0.96095,1.111814 -2.21556,0.944076 z"
       id="path1812"
       sodipodi:nodetypes="sssssssssssscsssssssssssssssssss" />
    <path
       sodipodi:nodetypes="csscsscscssssscsscsssscsssssscsscssccc"
       style="fill:#84b8a7;fill-opacity:1;stroke-width:0.0668173"
       d="m 14.639396,34.226429 c -1.342118,-0.159578 -1.901825,-0.283897 -2.405425,-0.534291 -0.674902,-0.335563 -0.924709,-0.724845 -1.186643,-1.8492 -0.211516,-0.907915 -0.205952,-3.065242 0.01328,-5.156424 0.20116,-1.918684 0.211518,-3.852476 0.04026,-7.516955 -0.23104,-4.943737 -0.04817,-7.574714 0.677823,-9.7521599 0.128074,-0.384125 0.304575,-0.839925 0.392223,-1.012894 0.553543,-1.092364 2.450722,-1.643092 6.410691,-1.86095 0.624744,-0.03437 1.473323,-0.149143 1.804071,-0.193811 0.716682,-0.09678 1.463976,-0.058858 1.834822,-0.095035 0.872957,-0.085159 0.174003,2.46026 -1.130101,2.3894836 -0.973264,-0.052821 -1.115329,-0.00792 -1.272229,0.2276403 -0.271042,0.406929 -0.100878,0.769376 0.63197,1.1663729 0.371295,0.201138 0.461332,0.277641 0.90439,0.277834 0.426291,1.85e-4 0.54769,-0.110682 0.812919,-0.266592 0.631089,-0.3709886 1.092701,-1.220844 1.422221,-2.364408 0.09403,-0.326308 0.166848,-0.7384268 0.190375,-0.9915639 0.02257,-0.2428689 0.101656,-0.466777 0.101656,-0.466777 0,0 0.379051,-0.1149435 0.894742,-0.201471 0.329386,-0.055268 0.995561,-0.067944 0.995561,-0.067944 0.01103,0.032903 -0.200635,0.3650924 -0.118728,0.6286284 0.314296,1.011261 1.324213,1.9146481 2.738932,3.0449295 l 0.78116,0.56461 -0.710938,0.213149 c -1.364593,0.409122 -2.36249,0.375385 -5.637917,0.467124 -1.304611,0.03654 -2.732831,0.05126 -3.173828,0.104885 -2.157352,0.26235 -3.372247,0.438523 -3.68504,0.534368 -1.033153,0.316577 -1.625862,1.171366 -1.826054,2.633496 -0.04985,0.364058 -0.08016,2.282502 -0.08866,5.610195 -0.01408,5.51048 -0.0048,5.690696 0.392157,7.596016 0.09187,0.440994 0.256882,1.249738 0.366694,1.797206 0.235115,1.17216 0.468848,1.722474 0.88354,2.080275 0.850537,0.733851 1.940534,0.965764 4.542012,0.966385 1.024094,2.65e-4 1.653731,0.02508 1.653731,0.06524 0,0.152651 -1.05142,0.949047 -1.627013,1.232376 -1.173546,0.577673 -2.262997,0.778031 -4.152691,0.763715 -0.698241,-0.0053 -1.359734,-0.02035 -1.469983,-0.03345 z"
       id="path1814" />
    <path
       style="fill:#84b8a7;fill-opacity:1;stroke-width:0.0668173"
       d="m 11.732839,47.146568 c 0,-0.56909 -0.190405,-8.861909 -0.232169,-10.11174 l -0.03824,-1.144275 0.605131,0.124118 c 1.627169,0.333749 2.457651,0.42009 4.075221,0.423688 1.403281,0.0031 1.651897,-0.01344 2.33861,-0.155752 1.376878,-0.285348 2.617756,-0.785058 3.343968,-1.346647 0.200417,-0.154985 0.785344,-0.69627 1.29984,-1.202857 1.48667,-1.463823 2.039612,-1.764027 3.240643,-1.759415 0.936456,0.0036 1.38647,0.196934 2.954687,1.269428 1.464463,1.001538 4.558229,2.323555 6.796999,2.904474 0.99087,0.257114 2.1501,0.444368 3.10397,0.501394 l 0.76119,0.04551 0.0571,1.310254 c 0.0838,1.925039 0.0684,4.421764 -0.0313,5.085434 -0.18345,1.220039 -0.54591,2.156677 -0.9751,2.519765 -0.55638,0.470701 -1.68694,0.769413 -3.6137,0.954804 -0.40424,0.0389 -2.43382,0.09907 -4.510172,0.13371 -3.522162,0.05877 -4.832088,0.111482 -9.120574,0.367033 -3.609861,0.215114 -5.413719,0.301196 -7.015824,0.334809 -0.918739,0.01929 -1.978631,0.04933 -2.355313,0.0668 l -0.684879,0.03176 z m 24.001185,-1.970725 c 0.86959,-0.315643 1.04695,-0.631277 1.54574,-1.272148 0.22429,-0.288177 0.3108,-0.594117 0.30673,-1.147602 -0.005,-0.731432 0.058,-0.987208 -0.50485,-1.575077 -0.67712,-0.707255 -1.47484,-1.492568 -2.31852,-1.851324 -0.48546,-0.206436 -0.63473,-0.224608 -1.20566,-0.204452 -0.55564,0.01961 -0.99274,0.362842 -1.27828,0.665147 -0.87558,0.926973 -1.277518,1.329965 -0.93294,2.791775 0.29021,1.231161 0.93314,2.263264 2.08445,2.636745 0.58642,0.190227 0.61722,0.136744 1.22232,0.109238 0.34692,-0.01577 0.79354,-0.04795 1.08101,-0.152302 z M 19.979896,42.401017 c 0.871453,-0.10387 0.249677,-1.002427 0.69404,-1.56161 0.471416,-0.593225 1.908918,0.158938 1.825421,-0.979326 -0.08161,-1.112547 -1.534864,-0.299998 -2.049897,-0.892112 -0.488516,-0.590481 0.07249,-1.509141 -1.021648,-1.466342 -1.120299,0.04382 -0.424228,1.204817 -0.852917,1.652604 -0.504041,0.526497 -1.880975,0.0813 -1.897567,1.086535 -0.01323,0.800957 1.198477,0.468516 2.115529,0.751835 0.691411,0.640556 0.120695,1.535519 1.187039,1.408416 z"
       id="path1816"
       sodipodi:nodetypes="sscssssssssscsssssssscssssssssssssssscsascs" />
    <path
       style="fill:#c5ecf5;fill-opacity:1;stroke-width:0.0668173"
       d="m 19.38343,30.054107 c -0.330745,-0.03595 -0.849587,-0.123806 -1.152985,-0.195225 -1.398371,-0.329176 -1.595149,-0.689795 -1.694593,-3.10555 -0.03328,-0.80849 -0.108228,-2.432153 -0.166544,-3.608139 -0.163124,-3.289479 -0.184148,-4.615944 -0.09849,-6.214017 0.106892,-1.99422 0.232982,-2.555941 0.663535,-2.956014 0.419765,-0.390047 1.242762,-0.629185 2.582712,-0.750457 0.440994,-0.03991 1.553504,-0.146579 2.472243,-0.237037 0.918739,-0.09046 2.963349,-0.269452 4.543581,-0.397764 1.580232,-0.12831 3.304826,-0.27894 3.832431,-0.33473 1.641084,-0.173538 2.197864,-0.120555 2.815894,0.267957 0.67458,0.424053 1.2671,1.398188 1.56356,2.570567 0.30545,1.207934 0.38071,2.109277 0.44353,5.311981 0.0476,2.427145 0.0843,3.174235 0.19051,3.87541 0.33707,2.225972 0.32533,3.233132 -0.0463,3.975635 -0.31709,0.633465 -0.77701,0.8333 -2.40611,1.045456 -1.21987,0.158861 -2.42067,0.157586 -3.836866,0.195167 -0.600998,0.01595 -0.634058,-0.136953 -1.634638,-0.752941 -0.321683,-0.19804 -0.547883,-0.489841 -0.820822,-0.548036 -0.259186,-0.05526 -0.51091,-0.02883 -0.574249,0.159464 -0.203258,0.604242 -0.213876,1.491877 -0.58401,1.532043 -0.831995,0.09029 -0.953182,0.09772 -1.794435,0.157274 -0.868151,0.06145 -3.477501,0.09814 -4.297911,0.009 z m 8.446387,-4.852651 c 1.105212,-0.649155 1.316289,-0.906116 0.09565,-1.438016 -0.801035,-0.349056 -0.956511,-0.494518 -1.629397,-1.370351 -0.550241,-0.716198 -0.488693,-0.669338 -1.085527,-0.02521 -0.721444,0.778608 -0.743516,0.921036 -1.798119,1.872536 -0.89816,0.810352 -0.710144,0.703463 -0.05555,1.132022 1.102482,0.721794 1.081886,0.570222 1.657376,1.162323 0.986584,1.01506 0.646568,0.4992 1.411145,-0.21662 0.608266,-0.569473 0.893879,-0.816803 1.404427,-1.116679 z m -4.759852,-4.627819 c 0.156946,-0.0019 0.508212,-0.367266 0.639019,-0.664798 0.189228,-0.430421 0.238636,-1.454719 0.09414,-1.951749 -0.152,-0.522862 -0.358277,-0.725236 -0.739224,-0.725236 -0.590418,0 -1.024261,0.636497 -1.090065,1.599247 -0.07327,1.072047 0.337299,1.895573 0.884094,1.773325 0.0735,-0.01643 0.168913,-0.03029 0.212032,-0.03079 z m 5.480907,-0.599565 c 0.286512,-0.174696 0.425032,-0.465053 0.43025,-0.901856 0.0061,-0.506923 -0.176194,-1.004895 -0.478356,-1.30706 -0.306112,-0.30611 -0.567,-0.376399 -0.892413,-0.240432 -0.63768,0.266438 -0.755875,1.424294 -0.217456,2.130208 0.353356,0.463283 0.744691,0.571135 1.157975,0.31914 z"
       id="path1820"
       sodipodi:nodetypes="sssssssssssssssssssssssssssssssssssscsssssssssss" />
    <path
       style="fill:#e75e54;fill-opacity:1;stroke-width:0.188988"
       d="m 33.600334,43.511849 c -0.59659,-0.02061 -0.56964,-0.722556 -0.46061,-1.404368 0.20164,-1.261013 0.76092,-1.425938 1.7132,-1.063879 0.71809,0.273013 0.91925,0.901141 0.66112,1.859769 -0.35972,1.335884 -0.96102,0.641398 -1.91371,0.608478 z"
       id="path1826"
       sodipodi:nodetypes="sssss" />
    <path
       sodipodi:nodetypes="ssssss"
       style="fill:#f96558;fill-opacity:1;stroke:#f96558;stroke-width:0.264583px;stroke-linecap:butt;stroke-linejoin:miter;stroke-opacity:1"
       d="m 25.727513,23.628902 c -0.460982,-0.02552 -0.873657,0.273577 -0.885331,0.868627 -0.01089,0.555059 0.315264,0.790474 0.868625,0.835218 0.585177,0.04732 1.013497,-0.349025 1.018965,-0.818514 0.003,-0.259449 -0.243235,-0.389135 -0.432292,-0.541443 -0.192574,-0.15514 -0.330191,-0.330615 -0.569967,-0.343888 z"
       id="path1859" />
    <path
       id="path2476"
       d="m 25.593878,23.712424 c -0.461639,0.0067 -0.740022,0.190055 -0.751696,0.785105 -0.01089,0.555059 0.315264,0.790474 0.868625,0.835218 0.585177,0.04732 1.013497,-0.349025 1.018965,-0.818514 0.0029,-0.249095 -0.246049,-0.379602 -0.420708,-0.534807 -0.192562,-0.171115 -0.457257,-0.270728 -0.715186,-0.267002 z"
       style="fill:#f96558;fill-opacity:1;stroke:#f96558;stroke-width:0.264583px;stroke-linecap:butt;stroke-linejoin:miter;stroke-opacity:1"
       sodipodi:nodetypes="ssssss" />
    <path
       sodipodi:nodetypes="sssssssssssscsssssssssssssssssss"
       id="path2478"
       d="m 38.359564,34.223463 c -1.59547,-0.213309 -2.71363,-0.277487 -3.3979,-0.443865 -1.54174,-0.374869 -2.81242,-1.087675 -3.45049,-1.769827 -0.400955,-0.428651 -0.313801,-0.448172 0.96441,-0.509875 3.45663,-0.166865 4.45148,-0.355574 4.92001,-1.28016 0.0878,-0.173246 0.28148,-0.613907 0.34381,-0.921498 0.16045,-0.791869 0.0502,-2.958529 -0.18511,-4.740095 -0.14509,-1.098508 -0.18205,-1.709143 -0.23556,-4.018828 -0.0917,-3.956735 -0.2039,-5.428081 -0.56807,-6.872697 -0.56151,-2.227385 -1.63335,-3.200046 -3.31839,-3.500266 -0.67669,-0.120563 -1.1234,-0.2091159 -2.288985,-0.08843 -1.127987,0.116797 -2.845324,0.371765 -2.845324,0.371765 0.04451,-0.154063 0.470067,-0.4741853 0.686251,-0.411206 0,0 0.108779,-0.0061 0.14028,-0.0058 0.19896,0.0019 0.396404,-0.0086 0.507393,-0.01464 0.438938,-0.024068 0.452551,-0.1975792 0.48433,-0.2266692 0.141369,-0.129413 0.367671,-0.3033839 0.550261,-0.5159315 0.234001,-0.2723946 0.585841,-0.6928548 0.335371,-0.9271081 -0.27798,-0.2599811 -0.837615,0.084947 -1.079364,0.053787 C 29.61887,8.3629851 28.868121,8.2906582 28.623648,8.0361639 28.159389,7.5528728 28.073204,7.6682325 27.564041,6.7761314 27.392189,6.4750305 27.32159,6.2613788 28.11503,6.2266901 l 0.406685,-0.01778 c 0.852036,-0.03725 4.298749,-0.298439 5.824749,-0.302281 2.09473,-0.0053 4.75355,0.103582 5.25652,0.199361 0.69268,0.131905 0.99929,0.752951 1.19858,2.067417 0.0886,0.584663 0.0977,1.732706 0.0695,8.7577719 -0.0222,5.509119 -0.10691,8.46574 -0.16495,9.330809 -0.0468,0.69824 -0.0274,2.055585 -0.0145,2.900825 0.0499,3.275134 0.0195,3.623262 -0.1165,4.116577 -0.25186,0.913842 -0.96095,1.111814 -2.21556,0.944076 z"
       style="fill:#84b8a7;fill-opacity:1;stroke-width:0.0668173" />
  </g>
</svg>
